<svg id="Capa_1" enable-background="new 0 0 512 512" height="512" viewBox="0 0 512 512" width="512" xmlns="http://www.w3.org/2000/svg"><g><path d="m189.599 289.81c-4.15 0-7.515 3.364-7.515 7.515v46.742c0 9.668 7.866 17.534 17.534 17.534h21.396c9.668 0 17.534-7.866 17.534-17.534v-176.133c0-9.668-7.866-17.534-17.534-17.534h-21.396c-9.668 0-17.534 7.866-17.534 17.534v99.333c0 4.151 3.365 7.515 7.515 7.515s7.515-3.364 7.515-7.515v-99.333c0-1.382 1.124-2.505 2.505-2.505h21.396c1.381 0 2.505 1.123 2.505 2.505v176.133c0 1.382-1.124 2.505-2.505 2.505h-21.396c-1.381 0-2.505-1.123-2.505-2.505v-46.742c0-4.151-3.365-7.515-7.515-7.515z"/><path d="m312.381 361.601c9.668 0 17.534-7.866 17.534-17.534v-176.133c0-9.668-7.866-17.534-17.534-17.534h-21.395c-9.668 0-17.534 7.866-17.534 17.534v176.133c0 9.668 7.866 17.534 17.534 17.534zm-23.901-17.535v-176.132c0-1.382 1.123-2.505 2.505-2.505h21.395c1.382 0 2.505 1.123 2.505 2.505v176.133c0 1.382-1.123 2.505-2.505 2.505h-21.395c-1.381-.001-2.505-1.124-2.505-2.506z"/><path d="m437.02 74.98c-48.353-48.352-112.639-74.98-181.02-74.98-68.38 0-132.667 26.628-181.02 74.98-48.351 48.353-74.98 112.639-74.98 181.02s26.629 132.667 74.98 181.02c48.353 48.352 112.64 74.98 181.02 74.98 55.989 0 109.165-17.746 153.782-51.318 3.316-2.496 3.981-7.207 1.486-10.523-2.497-3.316-7.204-3.982-10.523-1.486-41.99 31.597-92.042 48.298-144.745 48.298-64.366 0-124.879-25.066-170.392-70.578-45.514-45.514-70.579-106.027-70.579-170.393s25.065-124.879 70.579-170.392c45.513-45.513 106.026-70.579 170.392-70.579s124.879 25.065 170.392 70.578c45.513 45.514 70.578 106.026 70.578 170.392 0 33.383-6.696 65.697-19.9 96.047-12.757 29.321-30.969 55.473-54.129 77.728-2.993 2.876-3.088 7.633-.212 10.625s7.633 3.088 10.625.212c24.6-23.639 43.945-51.419 57.498-82.569 14.032-32.252 21.148-66.584 21.148-102.042 0-68.381-26.628-132.667-74.98-181.02z"/><path d="m114.096 103.469c-2.935-2.933-7.693-2.933-10.627 0-40.743 40.742-63.18 94.913-63.18 152.531s22.438 111.788 63.181 152.531c40.742 40.743 94.912 63.18 152.531 63.18 57.618 0 111.789-22.437 152.531-63.18 40.741-40.743 63.178-94.913 63.178-152.531s-22.437-111.789-63.179-152.531c-36.901-36.9-85.863-59.161-137.869-62.684-51.503-3.492-102.519 11.527-143.648 42.282-3.324 2.485-4.003 7.195-1.518 10.519s7.195 4.002 10.518 1.519c38.253-28.605 85.71-42.569 133.632-39.324 48.378 3.277 93.928 23.987 128.256 58.317 78.246 78.246 78.246 205.561 0 283.806-37.904 37.904-88.299 58.779-141.903 58.779s-104-20.875-141.904-58.779c-78.246-78.246-78.246-205.561 0-283.806 2.936-2.937 2.936-7.694.001-10.629z"/></g></svg>